<?xml version="1.0" encoding="utf-8"?>
<!-- Generator: Adobe Illustrator 24.0.0, SVG Export Plug-In . SVG Version: 6.00 Build 0)  -->
<svg version="1.1" id="Layer_1" xmlns="http://www.w3.org/2000/svg" xmlns:xlink="http://www.w3.org/1999/xlink" x="0px" y="0px"
	 viewBox="0 0 142 21" style="enable-background:new 0 0 142 21;" xml:space="preserve">
<style type="text/css">
	.st0{fill:#5F007C;}
</style>
<path class="st0" d="M141.4,16.4c0.5-0.2,0.7-0.8,0.5-1.3l-3.8-8.1c-0.2-0.5-0.8-0.7-1.3-0.5c-0.5,0.2-0.7,0.8-0.5,1.3l3.4,7.2
	l-7.2,3.4c-0.5,0.2-0.7,0.8-0.5,1.3c0.2,0.5,0.8,0.7,1.3,0.5L141.4,16.4z M1.3,16.4c0.5-0.2,1-0.3,1.4-0.5l-0.7-1.9
	c-0.5,0.2-1,0.3-1.4,0.5L1.3,16.4z M5.6,15c1-0.3,1.9-0.6,2.8-0.9l-0.6-1.9c-0.9,0.3-1.9,0.6-2.9,1L5.6,15z M11.2,13.1
	c1-0.3,1.9-0.6,2.9-0.9l-0.6-1.9c-1,0.3-1.9,0.6-2.9,0.9L11.2,13.1z M16.9,11.3c1-0.3,1.9-0.6,2.9-0.9l-0.6-1.9
	c-1,0.3-1.9,0.6-2.9,0.9L16.9,11.3z M22.7,9.7c1-0.3,1.9-0.5,2.9-0.8L25,6.9c-1,0.3-1.9,0.5-2.9,0.8L22.7,9.7z M28.4,8.1
	c1-0.3,1.9-0.5,2.9-0.7l-0.5-1.9c-1,0.2-1.9,0.5-2.9,0.7L28.4,8.1z M34.2,6.7c1-0.2,1.9-0.4,2.9-0.7l-0.4-2c-1,0.2-2,0.4-2.9,0.7
	L34.2,6.7z M40,5.4C41,5.2,42,5,43,4.8l-0.4-2c-1,0.2-2,0.4-3,0.6L40,5.4z M45.9,4.3c1-0.2,2-0.3,2.9-0.5l-0.3-2c-1,0.2-2,0.3-3,0.5
	L45.9,4.3z M51.8,3.4c1-0.1,2-0.3,3-0.4l-0.2-2c-1,0.1-2,0.2-3,0.4L51.8,3.4z M57.7,2.7c1-0.1,2-0.2,3-0.3l-0.2-2
	c-1,0.1-2,0.2-3,0.3L57.7,2.7z M63.6,2.2c1-0.1,2-0.1,3-0.1l-0.1-2c-1,0-2,0.1-3,0.1L63.6,2.2z M69.5,2c1,0,2,0,3,0l0-2
	c-1,0-2,0-3,0L69.5,2z M75.5,2.1c1,0,2,0.1,3,0.1l0.1-2c-1,0-2-0.1-3-0.1L75.5,2.1z M81.4,2.3c1,0.1,2,0.1,3,0.2l0.2-2
	c-1-0.1-2-0.2-3-0.2L81.4,2.3z M87.3,2.9c1,0.1,2,0.2,2.9,0.4l0.3-2c-1-0.1-2-0.2-3-0.4L87.3,2.9z M93.2,3.6c1,0.1,2,0.3,2.9,0.5
	l0.3-2c-1-0.2-2-0.3-3-0.5L93.2,3.6z M99.1,4.6c1,0.2,1.9,0.4,2.9,0.6l0.4-2c-1-0.2-2-0.4-3-0.6L99.1,4.6z M104.9,5.8
	c1,0.2,1.9,0.4,2.9,0.7l0.5-1.9c-1-0.2-2-0.5-2.9-0.7L104.9,5.8z M110.7,7.1c1,0.2,1.9,0.5,2.9,0.7l0.5-1.9c-1-0.3-1.9-0.5-2.9-0.7
	L110.7,7.1z M116.5,8.7c0.9,0.3,1.9,0.5,2.9,0.8l0.6-1.9C119,7.3,118,7,117,6.7L116.5,8.7z M122.2,10.3c0.9,0.3,1.9,0.6,2.8,0.9
	l0.6-1.9c-1-0.3-1.9-0.6-2.9-0.9L122.2,10.3z M127.9,12.1c0.9,0.3,1.9,0.6,2.8,0.9l0.6-1.9c-1-0.3-1.9-0.6-2.9-0.9L127.9,12.1z
	 M133.6,14c0.9,0.3,1.9,0.6,2.8,1l0.7-1.9c-1-0.3-1.9-0.7-2.8-1L133.6,14z M139.2,15.9c0.5,0.2,0.9,0.3,1.4,0.5l0.7-1.9
	c-0.5-0.2-1-0.3-1.4-0.5L139.2,15.9z"/>
</svg>
